<?xml version="1.0" encoding="UTF-8" standalone="no"?>
<svg
   xmlns:dc="http://purl.org/dc/elements/1.1/"
   xmlns:cc="http://creativecommons.org/ns#"
   xmlns:rdf="http://www.w3.org/1999/02/22-rdf-syntax-ns#"
   xmlns:svg="http://www.w3.org/2000/svg"
   xmlns="http://www.w3.org/2000/svg"
   xmlns:sodipodi="http://sodipodi.sourceforge.net/DTD/sodipodi-0.dtd"
   xmlns:inkscape="http://www.inkscape.org/namespaces/inkscape"
   version="1.1"
   x="0px"
   y="0px"
   viewBox="0 0 100 125"
   style="enable-background:new 0 0 100 100;"
   xml:space="preserve"
   id="svg10"
   sodipodi:docname="noun_Champagne_861971.svg"
   inkscape:version="0.92.3 (2405546, 2018-03-11)"><metadata
     id="metadata16"><rdf:RDF><cc:Work
         rdf:about=""><dc:format>image/svg+xml</dc:format><dc:type
           rdf:resource="http://purl.org/dc/dcmitype/StillImage" /></cc:Work></rdf:RDF></metadata><defs
     id="defs14" /><sodipodi:namedview
     pagecolor="#ffffff"
     bordercolor="#666666"
     borderopacity="1"
     objecttolerance="10"
     gridtolerance="10"
     guidetolerance="10"
     inkscape:pageopacity="0"
     inkscape:pageshadow="2"
     inkscape:window-width="668"
     inkscape:window-height="480"
     id="namedview12"
     showgrid="false"
     inkscape:zoom="1.888"
     inkscape:cx="50"
     inkscape:cy="62.5"
     inkscape:window-x="0"
     inkscape:window-y="28"
     inkscape:window-maximized="0"
     inkscape:current-layer="svg10" /><style
     type="text/css"
     id="style2">
	.st0{fill:none;stroke:#000000;stroke-width:2;stroke-linecap:round;stroke-linejoin:round;stroke-miterlimit:10;}
	.st1{fill:none;stroke:#000000;stroke-width:2;stroke-miterlimit:10;}
	.st2{fill:none;stroke:#000000;stroke-width:1.8;stroke-linecap:round;stroke-linejoin:round;stroke-miterlimit:10;}
	.st3{fill:none;stroke:#000000;stroke-width:1.6;stroke-linecap:round;stroke-linejoin:round;stroke-miterlimit:10;}
</style><path
     d="M58.8,35.6c0-4-0.4-13.7-1.1-17.6c-0.1-0.5-0.5-0.8-1-0.8H41.2c-0.5,0-0.9,0.3-1,0.8c-0.7,3.8-1.1,13.6-1.1,17.6  C39.2,48.5,43,58.8,48,60v23.1h-6.3c-0.6,0-1,0.4-1,1s0.4,1,1,1h14.7c0.6,0,1-0.4,1-1s-0.4-1-1-1H50V60C55,58.8,58.8,48.5,58.8,35.6  z M42.1,19.2h13.8c0.4,3.1,0.7,8.7,0.8,12.8c-1-0.6-2.1-1.1-3.8-1.1c-2.5,0-3.9,1.1-5.1,2c-1.1,0.9-2.1,1.6-3.9,1.6  c-1.2,0-2-0.3-2.7-0.7C41.3,29.7,41.6,22.8,42.1,19.2z M41.2,36c0.7,0.3,1.6,0.5,2.7,0.5c2.5,0,3.9-1.1,5.1-2  c1.1-0.9,2.1-1.6,3.9-1.6c1.8,0,2.8,0.7,3.9,1.6c0,0.4,0,0.7,0,1.1c0,13.3-4.1,22.6-7.8,22.6C45.3,58.2,41.3,49.1,41.2,36z"
     id="path4" /></svg>