<?xml version="1.0" encoding="UTF-8" standalone="no"?>
<svg
   xmlns:dc="http://purl.org/dc/elements/1.1/"
   xmlns:cc="http://creativecommons.org/ns#"
   xmlns:rdf="http://www.w3.org/1999/02/22-rdf-syntax-ns#"
   xmlns:svg="http://www.w3.org/2000/svg"
   xmlns="http://www.w3.org/2000/svg"
   xmlns:sodipodi="http://sodipodi.sourceforge.net/DTD/sodipodi-0.dtd"
   xmlns:inkscape="http://www.inkscape.org/namespaces/inkscape"
   version="1.1"
   x="0px"
   y="0px"
   viewBox="0 0 100 125"
   style="enable-background:new 0 0 100 100;"
   xml:space="preserve"
   id="svg10"
   sodipodi:docname="noun_Cocktail_861959.svg"
   inkscape:version="0.92.3 (2405546, 2018-03-11)"><metadata
     id="metadata16"><rdf:RDF><cc:Work
         rdf:about=""><dc:format>image/svg+xml</dc:format><dc:type
           rdf:resource="http://purl.org/dc/dcmitype/StillImage" /></cc:Work></rdf:RDF></metadata><defs
     id="defs14" /><sodipodi:namedview
     pagecolor="#ffffff"
     bordercolor="#666666"
     borderopacity="1"
     objecttolerance="10"
     gridtolerance="10"
     guidetolerance="10"
     inkscape:pageopacity="0"
     inkscape:pageshadow="2"
     inkscape:window-width="668"
     inkscape:window-height="480"
     id="namedview12"
     showgrid="false"
     inkscape:zoom="1.888"
     inkscape:cx="50"
     inkscape:cy="62.5"
     inkscape:window-x="0"
     inkscape:window-y="28"
     inkscape:window-maximized="0"
     inkscape:current-layer="svg10" /><style
     type="text/css"
     id="style2">
	.st0{fill:none;stroke:#000000;stroke-width:2;stroke-linecap:round;stroke-linejoin:round;stroke-miterlimit:10;}
	.st1{fill:none;stroke:#000000;stroke-width:2;stroke-miterlimit:10;}
	.st2{fill:none;stroke:#000000;stroke-width:1.8;stroke-linecap:round;stroke-linejoin:round;stroke-miterlimit:10;}
	.st3{fill:none;stroke:#000000;stroke-width:1.6;stroke-linecap:round;stroke-linejoin:round;stroke-miterlimit:10;}
</style><path
     d="M49,53.7v31h-6.3c-0.6,0-1,0.4-1,1s0.4,1,1,1h14.7c0.6,0,1-0.4,1-1s-0.4-1-1-1H51v-31c7.1-0.2,12.2-2.3,15.2-6.4  c5.4-7.5,1.7-18.5,1.6-19c-0.1-0.4-0.5-0.7-0.9-0.7h-0.7l1.5-2c0.4,0.1,0.9,0.2,1.4,0.2c2.4,0,4.3-1.9,4.3-4.3  c0-1.1-0.4-2.1-1.1-2.9l2-2.9c0.3-0.5,0.2-1.1-0.2-1.4c-0.5-0.3-1.1-0.2-1.4,0.2l-2.1,2.9c-0.5-0.2-1-0.3-1.5-0.3  c-2.4,0-4.3,1.9-4.3,4.3c0,1.2,0.5,2.2,1.2,3l-2.2,3.1H50.2c-0.1,0-0.1,0-0.2,0c-0.1,0-0.1,0-0.2,0H33.2c-0.4,0-0.8,0.3-0.9,0.7  c-0.2,0.5-3.8,11.5,1.6,19C36.8,51.4,41.9,53.5,49,53.7z M68.9,19.2c1.3,0,2.3,1,2.3,2.3s-1,2.3-2.3,2.3s-2.3-1-2.3-2.3  S67.6,19.2,68.9,19.2z M64.5,46.1c-2.7,3.7-7.5,5.6-14.3,5.6c0,0-0.1,0-0.1,0c0,0-0.1,0-0.1,0s-0.1,0-0.1,0c0,0-0.1,0-0.1,0  c-6.8,0-11.6-1.9-14.3-5.6c-1.9-2.6-2.5-5.8-2.5-8.7l0.2,0c2.4-0.8,4.6-1.5,8.9-1.5c4.3,0,6.5,0.7,8.9,1.5c2.4,0.8,4.9,1.6,9.5,1.6  c2.9,0,4.9-0.3,6.5-0.7C66.9,40.9,66.2,43.7,64.5,46.1z M66,29.6c0.3,1.1,0.9,3.6,1,6.5c-1.6,0.4-3.6,0.8-6.6,0.8c-0.3,0-0.7,0-1,0  l5.2-7.3H66z M34,29.6h15.8c0.1,0,0.1,0,0.2,0c0.1,0,0.1,0,0.2,0h12l-5,7.1c-2.3-0.3-3.9-0.8-5.6-1.3c-2.4-0.8-4.9-1.6-9.5-1.6  c-4.3,0-6.7,0.7-9,1.4C33.2,32.7,33.7,30.6,34,29.6z"
     id="path4" /></svg>