<?xml version="1.0" encoding="UTF-8" standalone="no"?>
<svg
   xmlns:dc="http://purl.org/dc/elements/1.1/"
   xmlns:cc="http://creativecommons.org/ns#"
   xmlns:rdf="http://www.w3.org/1999/02/22-rdf-syntax-ns#"
   xmlns:svg="http://www.w3.org/2000/svg"
   xmlns="http://www.w3.org/2000/svg"
   xmlns:sodipodi="http://sodipodi.sourceforge.net/DTD/sodipodi-0.dtd"
   xmlns:inkscape="http://www.inkscape.org/namespaces/inkscape"
   version="1.1"
   x="0px"
   y="0px"
   viewBox="0 0 100 125"
   style="enable-background:new 0 0 100 100;"
   xml:space="preserve"
   id="svg34"
   sodipodi:docname="noun_Cocktail_1225562.svg"
   inkscape:version="0.92.3 (2405546, 2018-03-11)"><metadata
     id="metadata40"><rdf:RDF><cc:Work
         rdf:about=""><dc:format>image/svg+xml</dc:format><dc:type
           rdf:resource="http://purl.org/dc/dcmitype/StillImage" /></cc:Work></rdf:RDF></metadata><defs
     id="defs38" /><sodipodi:namedview
     pagecolor="#ffffff"
     bordercolor="#666666"
     borderopacity="1"
     objecttolerance="10"
     gridtolerance="10"
     guidetolerance="10"
     inkscape:pageopacity="0"
     inkscape:pageshadow="2"
     inkscape:window-width="668"
     inkscape:window-height="480"
     id="namedview36"
     showgrid="false"
     inkscape:zoom="1.888"
     inkscape:cx="50"
     inkscape:cy="62.5"
     inkscape:window-x="0"
     inkscape:window-y="28"
     inkscape:window-maximized="0"
     inkscape:current-layer="svg34" /><path
     d="M60.481,40.758c-2.295-1.04-4.855-1.125-7.213-0.238c-0.598,0.224-1.174,0.51-1.711,0.848  c-0.399,0.252-0.568,0.749-0.405,1.192l5.7,15.476c0.146,0.397,0.524,0.654,0.938,0.654c0.048,0,0.097-0.003,0.145-0.01  c0.671-0.098,1.334-0.269,1.972-0.509c2.357-0.887,4.229-2.638,5.27-4.932s1.124-4.855,0.237-7.213  C64.527,43.669,62.775,41.798,60.481,40.758z M63.354,52.414c-0.819,1.808-2.293,3.188-4.151,3.886  c-0.252,0.095-0.509,0.176-0.769,0.243l-5.109-13.872c0.211-0.103,0.428-0.196,0.648-0.279c1.856-0.699,3.874-0.632,5.683,0.187  c1.808,0.82,3.188,2.294,3.887,4.151C64.24,48.588,64.174,50.606,63.354,52.414z"
     id="path2" /><path
     d="M60.286,46.913l-0.817,0.308c-0.517,0.195-0.778,0.771-0.583,1.288c0.15,0.401,0.531,0.648,0.936,0.648  c0.117,0,0.236-0.021,0.353-0.064l0.817-0.308c0.517-0.195,0.778-0.771,0.583-1.288C61.38,46.979,60.803,46.718,60.286,46.913z"
     id="path4" /><path
     d="M58.267,43.826c-0.531-0.166-1.089,0.132-1.252,0.659l-0.374,1.205c-0.164,0.527,0.131,1.087,0.658,1.251  c0.099,0.031,0.199,0.045,0.297,0.045c0.427,0,0.822-0.275,0.955-0.704l0.374-1.205C59.089,44.55,58.794,43.99,58.267,43.826z"
     id="path6" /><path
     d="M61.166,51.021l-0.998-0.625c-0.466-0.293-1.085-0.151-1.378,0.317c-0.293,0.468-0.151,1.085,0.317,1.378l0.998,0.625  c0.165,0.103,0.348,0.152,0.529,0.152c0.333,0,0.659-0.167,0.849-0.47C61.776,51.931,61.635,51.314,61.166,51.021z"
     id="path8" /><path
     d="M49.643,47.697c-0.163-0.443-0.618-0.709-1.082-0.644c-0.67,0.098-1.333,0.269-1.972,0.509  c-4.866,1.83-7.337,7.278-5.506,12.145c0.886,2.357,2.638,4.229,4.932,5.269c1.243,0.563,2.564,0.846,3.889,0.846  c1.121,0,2.244-0.202,3.324-0.608c0.598-0.225,1.174-0.51,1.71-0.848c0.4-0.251,0.569-0.749,0.406-1.192L49.643,47.697z   M52.522,63.341c-1.855,0.699-3.875,0.632-5.682-0.188c-1.808-0.819-3.188-2.293-3.887-4.151c-0.698-1.857-0.632-3.876,0.188-5.683  s2.294-3.188,4.15-3.886c0.253-0.095,0.51-0.176,0.77-0.243l5.109,13.871C52.96,63.165,52.743,63.258,52.522,63.341z"
     id="path10" /><path
     d="M47.61,57.226c-0.193-0.517-0.77-0.777-1.288-0.584l-0.817,0.308c-0.517,0.195-0.778,0.771-0.583,1.288  c0.15,0.401,0.531,0.648,0.936,0.648c0.117,0,0.236-0.021,0.353-0.064l0.817-0.308C47.544,58.319,47.806,57.742,47.61,57.226z"
     id="path12" /><path
     d="M47.57,60.656c-0.164,0.527,0.131,1.087,0.658,1.251c0.099,0.031,0.199,0.045,0.297,0.045c0.427,0,0.822-0.275,0.955-0.704  l0.374-1.205c0.164-0.527-0.131-1.087-0.658-1.251c-0.53-0.166-1.089,0.132-1.252,0.659L47.57,60.656z"
     id="path14" /><path
     d="M45.33,54.713l0.998,0.625c0.165,0.103,0.348,0.152,0.529,0.152c0.333,0,0.659-0.167,0.849-0.47  c0.293-0.468,0.151-1.085-0.317-1.378l-0.998-0.625c-0.467-0.292-1.085-0.151-1.378,0.317C44.72,53.803,44.861,54.42,45.33,54.713z"
     id="path16" /><path
     d="M36.434,21.805c0-0.552-0.447-1-1-1h-2.627c-0.553,0-1,0.448-1,1s0.447,1,1,1h2.627  C35.986,22.805,36.434,22.357,36.434,21.805z"
     id="path18" /><path
     d="M39.75,18.488c0.553,0,1-0.448,1-1v-2.626c0-0.552-0.447-1-1-1s-1,0.448-1,1v2.626C38.75,18.041,39.197,18.488,39.75,18.488  z"
     id="path20" /><path
     d="M35.99,24.15l-1.856,1.857c-0.391,0.391-0.391,1.024,0,1.414c0.195,0.195,0.451,0.293,0.707,0.293s0.512-0.098,0.707-0.293  l1.856-1.857c0.391-0.391,0.391-1.024,0-1.414C37.014,23.76,36.381,23.76,35.99,24.15z"
     id="path22" /><path
     d="M42.803,19.752c0.256,0,0.512-0.098,0.707-0.293l1.856-1.857c0.391-0.391,0.391-1.024,0-1.414  c-0.391-0.391-1.023-0.391-1.414,0l-1.856,1.857c-0.391,0.391-0.391,1.024,0,1.414C42.291,19.655,42.547,19.752,42.803,19.752z"
     id="path24" /><path
     d="M35.548,16.188c-0.391-0.391-1.023-0.391-1.414,0c-0.391,0.39-0.391,1.023,0,1.414l1.856,1.857  c0.195,0.195,0.451,0.293,0.707,0.293s0.512-0.098,0.707-0.293c0.391-0.39,0.391-1.023,0-1.414L35.548,16.188z"
     id="path26" /><path
     d="M66.085,23.072c0.128-0.259,0.248-0.5,0.35-0.728c0.139-0.31,0.111-0.668-0.073-0.953c-0.184-0.285-0.5-0.457-0.839-0.457  H51.511C51.062,14.832,45.965,10,39.75,10c-6.509,0-11.805,5.295-11.805,11.804c0,5.538,4.117,11.285,10.998,11.318  c0.061,0.001,0.12,0.001,0.179,0.001c0.017,0,0.03-0.001,0.047-0.001c-0.34,0.76-0.754,1.572-1.255,2.442  c-5.546,9.624-6.383,21.087-2.084,28.527c2.196,3.8,6.79,8.3,16.183,8.515V88h-6.396c-0.553,0-1,0.448-1,1s0.447,1,1,1h14.793  c0.553,0,1-0.448,1-1s-0.447-1-1-1h-6.396V72.586c8.952-0.404,13.382-4.784,15.526-8.494c4.299-7.439,3.462-18.903-2.084-28.527  C63.387,28.505,65.011,25.236,66.085,23.072z M63.348,31.101c-1.337-0.574-2.908-1.036-5.266-1.036  c-3.232,0-4.991,0.866-6.691,1.704c-1.564,0.771-3.041,1.499-5.81,1.499c-1.803,0-3.03-0.309-4.034-0.695  c1.755-4.753,0.81-7.675-0.105-9.638h22.486C63.111,24.686,62.274,27.204,63.348,31.101z M38.962,31.123  c-5.644-0.027-9.017-4.759-9.017-9.318c0-5.406,4.398-9.804,9.805-9.804c5.113,0,9.318,3.935,9.761,8.935h-9.664  c-0.339,0-0.655,0.172-0.84,0.457c-0.184,0.285-0.211,0.644-0.072,0.953c0.102,0.227,0.221,0.468,0.35,0.727  c0.814,1.64,1.94,3.92,0.666,8.002C39.742,31.105,39.337,31.129,38.962,31.123z M67.808,63.09  c-2.847,4.926-8.076,7.532-15.123,7.536c-7.047-0.004-12.276-2.61-15.123-7.536c-3.892-6.734-3.034-17.643,2.085-26.527  c0.434-0.753,0.797-1.463,1.12-2.148c1.172,0.458,2.666,0.853,4.814,0.853c3.234,0,4.993-0.867,6.693-1.705  c1.563-0.771,3.041-1.498,5.808-1.498c2.772,0,4.25,0.729,5.813,1.501l0.409,0.2c0.383,0.876,0.845,1.803,1.418,2.797  C70.842,45.448,71.699,56.356,67.808,63.09z"
     id="path28" /></svg>