<?xml version="1.0" encoding="UTF-8" standalone="no"?>
<svg
   xmlns:dc="http://purl.org/dc/elements/1.1/"
   xmlns:cc="http://creativecommons.org/ns#"
   xmlns:rdf="http://www.w3.org/1999/02/22-rdf-syntax-ns#"
   xmlns:svg="http://www.w3.org/2000/svg"
   xmlns="http://www.w3.org/2000/svg"
   xmlns:sodipodi="http://sodipodi.sourceforge.net/DTD/sodipodi-0.dtd"
   xmlns:inkscape="http://www.inkscape.org/namespaces/inkscape"
   version="1.1"
   x="0px"
   y="0px"
   viewBox="0 0 100 125"
   style="enable-background:new 0 0 100 100;"
   xml:space="preserve"
   id="svg34"
   sodipodi:docname="noun_drinks_928391.svg"
   inkscape:version="0.92.3 (2405546, 2018-03-11)"><metadata
     id="metadata40"><rdf:RDF><cc:Work
         rdf:about=""><dc:format>image/svg+xml</dc:format><dc:type
           rdf:resource="http://purl.org/dc/dcmitype/StillImage" /></cc:Work></rdf:RDF></metadata><defs
     id="defs38" /><sodipodi:namedview
     pagecolor="#ffffff"
     bordercolor="#666666"
     borderopacity="1"
     objecttolerance="10"
     gridtolerance="10"
     guidetolerance="10"
     inkscape:pageopacity="0"
     inkscape:pageshadow="2"
     inkscape:window-width="668"
     inkscape:window-height="480"
     id="namedview36"
     showgrid="false"
     inkscape:zoom="1.888"
     inkscape:cx="50"
     inkscape:cy="62.5"
     inkscape:window-x="0"
     inkscape:window-y="28"
     inkscape:window-maximized="0"
     inkscape:current-layer="svg34" /><path
     d="M61,31.5c0.6,0,1-0.1,1.2-0.1c4.9-1,8.5-5.4,8.5-10.4c0-5.8-4.7-10.6-10.6-10.6c-5.7,0-10.3,4.5-10.6,10.2h-9.2c0,0,0,0,0,0  c-0.1,0-0.1,0-0.2,0c-0.5,0.1-0.9,0.6-0.8,1.2c0,0.2,3.1,17.9-0.9,33.4c-2.7,10.3,2.4,13.3,6.5,15.7c2.8,1.6,4.5,2.8,4.5,5.2v10.4  H43c-0.6,0-1,0.4-1,1s0.4,1,1,1h14.5c0.6,0,1-0.4,1-1s-0.4-1-1-1h-6.3V76.1c0-2.4,1.7-3.6,4.5-5.2c4.1-2.4,9.1-5.4,6.5-15.7  c-2.1-8.3-2.3-17.2-1.9-23.7C60.5,31.5,60.8,31.5,61,31.5z M60.1,12.5c4.7,0,8.6,3.9,8.6,8.6c0,4.1-2.9,7.6-6.8,8.4  c-0.4,0.1-1,0.1-1.4,0c0.3-4.6,0.8-7.6,0.9-7.7c0.1-0.3,0-0.6-0.2-0.8s-0.5-0.4-0.8-0.4h-8.8C51.7,16.1,55.5,12.5,60.1,12.5z   M59.1,22.6c-0.2,1.3-0.5,3.5-0.7,6.3c-1-0.7-2.3-1.3-4.1-1.3c-2.5,0-3.9,1.1-5.1,2c-1.1,0.9-2.1,1.6-3.9,1.6c-1.4,0-2.3-0.4-3-0.9  c-0.2-3.5-0.6-6.2-0.8-7.7H59.1z M60.3,55.7c2.3,8.9-1.7,11.2-5.5,13.5c-1.7,1-3.4,2-4.5,3.6c-1-1.6-2.8-2.6-4.5-3.6  c-3.8-2.3-7.8-4.6-5.5-13.5c2.1-8.1,2.3-16.5,2.1-23c0.8,0.3,1.7,0.6,2.9,0.6c2.5,0,3.9-1.1,5.1-2c1.1-0.9,2.1-1.6,3.9-1.6  c1.8,0,2.8,0.7,3.9,1.6l0.1,0C57.9,37.9,58,47.1,60.3,55.7z"
     id="path2" /><path
     d="M62.9,21.1c0,0.6,0.4,1,1,1h2.3c0.6,0,1-0.4,1-1s-0.4-1-1-1h-2.3C63.3,20.1,62.9,20.5,62.9,21.1z"
     id="path4" /><path
     d="M61.1,17.2v-2.3c0-0.6-0.4-1-1-1s-1,0.4-1,1v2.3c0,0.6,0.4,1,1,1S61.1,17.8,61.1,17.2z"
     id="path6" /><path
     d="M63.7,26.1c0.2,0.2,0.5,0.3,0.7,0.3s0.5-0.1,0.7-0.3c0.4-0.4,0.4-1,0-1.4l-1.6-1.6c-0.4-0.4-1-0.4-1.4,0  c-0.4,0.4-0.4,1,0,1.4L63.7,26.1z"
     id="path8" /><path
     d="M56.4,16c-0.4-0.4-1-0.4-1.4,0c-0.4,0.4-0.4,1,0,1.4l1.6,1.6c0.2,0.2,0.5,0.3,0.7,0.3s0.5-0.1,0.7-0.3c0.4-0.4,0.4-1,0-1.4  L56.4,16z"
     id="path10" /><path
     d="M62.8,19.4c0.3,0,0.5-0.1,0.7-0.3l1.6-1.6c0.4-0.4,0.4-1,0-1.4c-0.4-0.4-1-0.4-1.4,0l-1.6,1.6c-0.4,0.4-0.4,1,0,1.4  C62.3,19.3,62.5,19.4,62.8,19.4z"
     id="path12" /><path
     d="M47.6,54.2c-0.3-0.3-0.8-0.3-1.1,0c-0.4,0.3-0.7,0.6-1.1,1c-1.2,1.4-1.7,3.2-1.6,5s1,3.4,2.4,4.6c1.3,1.1,2.8,1.6,4.4,1.6  c1.9,0,3.9-0.8,5.2-2.4c0.3-0.4,0.6-0.7,0.8-1.1c0.2-0.4,0.1-0.8-0.2-1.1L47.6,54.2z M54.4,62.7c-1.8,2.1-4.9,2.4-7,0.6  c-1-0.9-1.7-2.1-1.8-3.4c-0.1-1.3,0.3-2.6,1.1-3.7c0.1-0.1,0.2-0.2,0.2-0.3l7.6,6.5C54.6,62.6,54.5,62.7,54.4,62.7z"
     id="path14" /><path
     d="M48.1,60.9c-0.3,0.3-0.2,0.8,0.1,1.1c0.1,0.1,0.3,0.2,0.5,0.2c0.2,0,0.5-0.1,0.6-0.3l0.3-0.4c0.3-0.3,0.2-0.8-0.1-1.1  c-0.3-0.3-0.8-0.2-1.1,0.1L48.1,60.9z"
     id="path16" /><path
     d="M50.5,62.7c0.1,0.4,0.4,0.6,0.8,0.6c0.1,0,0.1,0,0.2,0c0.4-0.1,0.7-0.5,0.6-1L52,61.7c-0.1-0.4-0.5-0.7-1-0.6  c-0.4,0.1-0.7,0.5-0.6,1L50.5,62.7z"
     id="path18" /><path
     d="M46.4,59.1c0,0.4,0.3,0.8,0.8,0.8l0.7,0c0,0,0,0,0,0c0.4,0,0.8-0.3,0.8-0.8c0-0.4-0.3-0.8-0.8-0.8l-0.7,0  C46.9,58.3,46.5,58.7,46.4,59.1z"
     id="path20" /><path
     d="M47.8,40.6c-0.4,0.1-0.9,0.3-1.3,0.6c-0.4,0.2-0.5,0.7-0.4,1.1l3.5,11c0.1,0.4,0.5,0.6,0.9,0.6c0,0,0.1,0,0.1,0  c0.5,0,1-0.2,1.4-0.3c3.6-1.2,5.5-5,4.3-8.6C55.2,41.4,51.4,39.4,47.8,40.6z M51.5,51.8c-0.1,0-0.2,0.1-0.3,0.1l-3.1-9.5  c0.1,0,0.2-0.1,0.3-0.1c2.6-0.9,5.5,0.6,6.3,3.2C55.6,48.1,54.1,50.9,51.5,51.8z"
     id="path22" /><path
     d="M52,47.4c0.1,0,0.2,0,0.2,0l0.5-0.2c0.4-0.1,0.6-0.6,0.5-1c-0.1-0.4-0.6-0.6-1-0.5l-0.5,0.2c-0.4,0.1-0.6,0.6-0.5,1  C51.4,47.2,51.7,47.4,52,47.4z"
     id="path24" /><path
     d="M51.4,45.1l0.2-0.7c0.1-0.4-0.1-0.9-0.5-1c-0.4-0.2-0.9,0.1-1,0.5l-0.2,0.7c-0.1,0.4,0.1,0.9,0.5,1c0.1,0,0.2,0,0.3,0  C51,45.6,51.3,45.4,51.4,45.1z"
     id="path26" /><path
     d="M52.5,48.1c-0.4-0.3-0.9-0.2-1.1,0.2c-0.2,0.4-0.2,0.9,0.2,1.1l0.6,0.4c0.1,0.1,0.3,0.1,0.5,0.1c0.3,0,0.5-0.1,0.7-0.3  c0.2-0.4,0.2-0.9-0.2-1.1L52.5,48.1z"
     id="path28" /></svg>