<?xml version="1.0" encoding="UTF-8" standalone="no"?>
<svg
   xmlns:dc="http://purl.org/dc/elements/1.1/"
   xmlns:cc="http://creativecommons.org/ns#"
   xmlns:rdf="http://www.w3.org/1999/02/22-rdf-syntax-ns#"
   xmlns:svg="http://www.w3.org/2000/svg"
   xmlns="http://www.w3.org/2000/svg"
   xmlns:sodipodi="http://sodipodi.sourceforge.net/DTD/sodipodi-0.dtd"
   xmlns:inkscape="http://www.inkscape.org/namespaces/inkscape"
   version="1.1"
   x="0px"
   y="0px"
   viewBox="0 0 100 125"
   style="enable-background:new 0 0 100 100;"
   xml:space="preserve"
   id="svg26"
   sodipodi:docname="noun_Cocktail_861962.svg"
   inkscape:version="0.92.3 (2405546, 2018-03-11)"><metadata
     id="metadata32"><rdf:RDF><cc:Work
         rdf:about=""><dc:format>image/svg+xml</dc:format><dc:type
           rdf:resource="http://purl.org/dc/dcmitype/StillImage" /></cc:Work></rdf:RDF></metadata><defs
     id="defs30" /><sodipodi:namedview
     pagecolor="#ffffff"
     bordercolor="#666666"
     borderopacity="1"
     objecttolerance="10"
     gridtolerance="10"
     guidetolerance="10"
     inkscape:pageopacity="0"
     inkscape:pageshadow="2"
     inkscape:window-width="668"
     inkscape:window-height="480"
     id="namedview28"
     showgrid="false"
     inkscape:zoom="1.888"
     inkscape:cx="50"
     inkscape:cy="62.5"
     inkscape:window-x="0"
     inkscape:window-y="28"
     inkscape:window-maximized="0"
     inkscape:current-layer="svg26" /><style
     type="text/css"
     id="style2">
	.st0{fill:none;stroke:#000000;stroke-width:2;stroke-linecap:round;stroke-linejoin:round;stroke-miterlimit:10;}
	.st1{fill:none;stroke:#000000;stroke-width:2;stroke-miterlimit:10;}
	.st2{fill:none;stroke:#000000;stroke-width:1.8;stroke-linecap:round;stroke-linejoin:round;stroke-miterlimit:10;}
	.st3{fill:none;stroke:#000000;stroke-width:1.6;stroke-linecap:round;stroke-linejoin:round;stroke-miterlimit:10;}
</style><path
     d="M44.5,68.2c2.8,1.6,4.5,2.8,4.5,5.2v10.4h-6.3c-0.6,0-1,0.4-1,1s0.4,1,1,1h14.5c0.6,0,1-0.4,1-1s-0.4-1-1-1H51V73.4  c0-2.4,1.7-3.6,4.5-5.2c4.1-2.4,9.1-5.4,6.5-15.7C58,37,61,19.2,61,19.1c0.1-0.5-0.3-1.1-0.8-1.2c-0.1,0-0.1,0-0.2,0c0,0,0,0,0,0H40  c-0.3,0-0.6,0.1-0.8,0.4c-0.2,0.2-0.3,0.5-0.2,0.8c0,0.2,3.1,17.9-0.9,33.4C35.4,62.8,40.4,65.8,44.5,68.2z M58.9,19.9  c-0.2,1.5-0.6,4.2-0.8,7.7c-0.7,0.5-1.6,0.9-3,0.9c-1.8,0-2.8-0.7-3.9-1.6c-1.2-0.9-2.6-2-5.1-2c-1.9,0-3.1,0.6-4.1,1.3  c-0.2-2.8-0.5-5-0.7-6.3H58.9z M40,53c2.2-8.6,2.4-17.8,2-24.4l0.1,0c1.1-0.9,2.1-1.6,3.9-1.6c1.8,0,2.8,0.7,3.9,1.6  c1.2,0.9,2.6,2,5.1,2c1.2,0,2.1-0.2,2.9-0.6c-0.3,6.5,0,15,2.1,23c2.3,8.9-1.7,11.2-5.5,13.5c-1.7,1-3.4,2-4.5,3.6  c-1-1.5-2.8-2.6-4.5-3.6C41.7,64.2,37.7,61.8,40,53z"
     id="path4" /><path
     d="M52.7,51.4l-8.8,7.5c-0.3,0.3-0.4,0.7-0.2,1.1c0.2,0.4,0.5,0.8,0.8,1.1c1.3,1.6,3.3,2.4,5.2,2.4c1.5,0,3.1-0.5,4.4-1.6  c2.9-2.4,3.3-6.7,0.9-9.6c-0.3-0.4-0.7-0.7-1.1-1C53.5,51.1,53,51.2,52.7,51.4z M52.9,60.6c-2.1,1.8-5.3,1.5-7-0.6  c-0.1-0.1-0.1-0.2-0.2-0.2l7.6-6.5c0.1,0.1,0.2,0.2,0.2,0.3C55.3,55.7,55,58.9,52.9,60.6z"
     id="path6" /><path
     d="M51.8,57.7c-0.3-0.3-0.8-0.4-1.1-0.1c-0.3,0.3-0.4,0.8-0.1,1.1l0.3,0.4c0.2,0.2,0.4,0.3,0.6,0.3c0.2,0,0.4-0.1,0.5-0.2  c0.3-0.3,0.4-0.8,0.1-1.1L51.8,57.7z"
     id="path8" /><path
     d="M49.3,58.3c-0.4-0.1-0.9,0.2-1,0.6l-0.2,0.7c-0.1,0.4,0.2,0.9,0.6,1c0.1,0,0.1,0,0.2,0c0.4,0,0.7-0.3,0.8-0.6l0.2-0.7  C50,58.8,49.7,58.4,49.3,58.3z"
     id="path10" /><path
     d="M52.3,55.6c-0.4,0-0.8,0.4-0.8,0.8c0,0.4,0.4,0.8,0.8,0.8c0,0,0,0,0,0l0.7,0c0.4,0,0.8-0.4,0.8-0.8c0-0.4-0.4-0.8-0.8-0.8  L52.3,55.6z"
     id="path12" /><path
     d="M48.2,50.8c0.5,0.2,1,0.3,1.4,0.3c0,0,0.1,0,0.1,0c0.4,0,0.7-0.2,0.9-0.6l3.5-11c0.1-0.4,0-0.8-0.4-1.1  c-0.4-0.2-0.8-0.4-1.3-0.6c-3.6-1.2-7.4,0.8-8.6,4.3C42.7,45.7,44.6,49.6,48.2,50.8z M45.6,42.7c0.4-1.3,1.3-2.3,2.5-2.9  c0.7-0.4,1.5-0.5,2.3-0.5c0.5,0,1.1,0.1,1.6,0.3c0.1,0,0.2,0.1,0.3,0.1l-3.1,9.5c-0.1,0-0.2-0.1-0.3-0.1  C46.1,48.2,44.7,45.4,45.6,42.7z"
     id="path14" /><path
     d="M47.5,44.5l0.5,0.2c0.1,0,0.2,0,0.2,0c0.3,0,0.7-0.2,0.8-0.6c0.1-0.4-0.1-0.9-0.5-1L48,43c-0.4-0.1-0.9,0.1-1,0.5  C46.8,43.9,47.1,44.3,47.5,44.5z"
     id="path16" /><path
     d="M48.8,42.3c0.1,0.3,0.4,0.5,0.8,0.5c0.1,0,0.2,0,0.3,0c0.4-0.1,0.6-0.6,0.5-1l-0.2-0.7c-0.1-0.4-0.6-0.6-1-0.5  c-0.4,0.1-0.6,0.6-0.5,1L48.8,42.3z"
     id="path18" /><path
     d="M48.1,47.1l0.6-0.4c0.4-0.2,0.5-0.7,0.2-1.1c-0.3-0.4-0.7-0.5-1.1-0.2l-0.6,0.4c-0.4,0.2-0.5,0.7-0.2,1.1  c0.2,0.2,0.4,0.3,0.7,0.3C47.8,47.2,48,47.2,48.1,47.1z"
     id="path20" /></svg>