<?xml version="1.0" encoding="UTF-8" standalone="no"?>
<svg
   xmlns:dc="http://purl.org/dc/elements/1.1/"
   xmlns:cc="http://creativecommons.org/ns#"
   xmlns:rdf="http://www.w3.org/1999/02/22-rdf-syntax-ns#"
   xmlns:svg="http://www.w3.org/2000/svg"
   xmlns="http://www.w3.org/2000/svg"
   xmlns:sodipodi="http://sodipodi.sourceforge.net/DTD/sodipodi-0.dtd"
   xmlns:inkscape="http://www.inkscape.org/namespaces/inkscape"
   version="1.1"
   x="0px"
   y="0px"
   viewBox="0 0 100 125"
   style="enable-background:new 0 0 100 100;"
   xml:space="preserve"
   id="svg10"
   sodipodi:docname="noun_cosmopolitan_861967.svg"
   inkscape:version="0.92.3 (2405546, 2018-03-11)"><metadata
     id="metadata16"><rdf:RDF><cc:Work
         rdf:about=""><dc:format>image/svg+xml</dc:format><dc:type
           rdf:resource="http://purl.org/dc/dcmitype/StillImage" /></cc:Work></rdf:RDF></metadata><defs
     id="defs14" /><sodipodi:namedview
     pagecolor="#ffffff"
     bordercolor="#666666"
     borderopacity="1"
     objecttolerance="10"
     gridtolerance="10"
     guidetolerance="10"
     inkscape:pageopacity="0"
     inkscape:pageshadow="2"
     inkscape:window-width="668"
     inkscape:window-height="480"
     id="namedview12"
     showgrid="false"
     inkscape:zoom="1.888"
     inkscape:cx="50"
     inkscape:cy="62.5"
     inkscape:window-x="0"
     inkscape:window-y="28"
     inkscape:window-maximized="0"
     inkscape:current-layer="svg10" /><style
     type="text/css"
     id="style2">
	.st0{fill:none;stroke:#000000;stroke-width:2;stroke-linecap:round;stroke-linejoin:round;stroke-miterlimit:10;}
	.st1{fill:none;stroke:#000000;stroke-width:2;stroke-miterlimit:10;}
	.st2{fill:none;stroke:#000000;stroke-width:1.8;stroke-linecap:round;stroke-linejoin:round;stroke-miterlimit:10;}
	.st3{fill:none;stroke:#000000;stroke-width:1.6;stroke-linecap:round;stroke-linejoin:round;stroke-miterlimit:10;}
</style><path
     d="M73,21.9v-0.4c0-1-1-1.7-2.3-1.7H28.1c-1.3,0-2.3,0.7-2.3,1.7v0.4l22.6,24.7V77h-6.3c-0.6,0-1,0.4-1,1s0.4,1,1,1h14.7  c0.6,0,1-0.4,1-1s-0.4-1-1-1h-6.3V46.5L73,21.9z M49.5,44.5C49.4,44.5,49.4,44.6,49.5,44.5l-14-15.1c1.1,0.2,2.5,0.3,4.1,0.3  c4.3,0,6.7-0.9,9-1.7c2.2-0.8,4.3-1.6,8.3-1.6c3.7,0,5.8,0.7,7.9,1.5L49.5,44.5C49.5,44.6,49.5,44.5,49.5,44.5z M70.4,21.8l-4.1,4.5  l-0.4-0.1c-2.3-0.9-4.7-1.7-9-1.7c-4.3,0-6.7,0.9-9,1.7c-2.2,0.8-4.3,1.6-8.3,1.6c-3.1,0-5-0.5-6.6-1l-4.5-5H70.4z"
     id="path4" /></svg>