<?xml version="1.0" encoding="UTF-8" standalone="no"?>
<svg
   xmlns:dc="http://purl.org/dc/elements/1.1/"
   xmlns:cc="http://creativecommons.org/ns#"
   xmlns:rdf="http://www.w3.org/1999/02/22-rdf-syntax-ns#"
   xmlns:svg="http://www.w3.org/2000/svg"
   xmlns="http://www.w3.org/2000/svg"
   xmlns:sodipodi="http://sodipodi.sourceforge.net/DTD/sodipodi-0.dtd"
   xmlns:inkscape="http://www.inkscape.org/namespaces/inkscape"
   version="1.1"
   x="0px"
   y="0px"
   viewBox="0 0 100 125"
   style="enable-background:new 0 0 100 100;"
   xml:space="preserve"
   id="svg14"
   sodipodi:docname="noun_espresso martini_872921.svg"
   inkscape:version="0.92.3 (2405546, 2018-03-11)"><metadata
     id="metadata20"><rdf:RDF><cc:Work
         rdf:about=""><dc:format>image/svg+xml</dc:format><dc:type
           rdf:resource="http://purl.org/dc/dcmitype/StillImage" /></cc:Work></rdf:RDF></metadata><defs
     id="defs18" /><sodipodi:namedview
     pagecolor="#ffffff"
     bordercolor="#666666"
     borderopacity="1"
     objecttolerance="10"
     gridtolerance="10"
     guidetolerance="10"
     inkscape:pageopacity="0"
     inkscape:pageshadow="2"
     inkscape:window-width="668"
     inkscape:window-height="480"
     id="namedview16"
     showgrid="false"
     inkscape:zoom="1.888"
     inkscape:cx="50"
     inkscape:cy="62.5"
     inkscape:window-x="0"
     inkscape:window-y="28"
     inkscape:window-maximized="0"
     inkscape:current-layer="svg14" /><style
     type="text/css"
     id="style2">
	.st0{fill:none;stroke:#000000;stroke-width:2;stroke-linecap:round;stroke-linejoin:round;stroke-miterlimit:10;}
	.st1{fill:none;stroke:#000000;stroke-width:2;stroke-miterlimit:10;}
	.st2{fill:none;stroke:#000000;stroke-width:1.8;stroke-linecap:round;stroke-linejoin:round;stroke-miterlimit:10;}
	.st3{fill:none;stroke:#000000;stroke-width:1.6;stroke-linecap:round;stroke-linejoin:round;stroke-miterlimit:10;}
</style><path
     d="M49.1,47.5v31h-6.3c-0.6,0-1,0.4-1,1s0.4,1,1,1h14.7c0.6,0,1-0.4,1-1s-0.4-1-1-1h-6.3v-31c6.9-0.1,11.6-2.2,14-6.1  c4.6-7.5-1-19-1.3-19.4c-0.2-0.3-0.5-0.5-0.9-0.5H50.3c-0.1,0-0.1,0-0.2,0c-0.1,0-0.1,0-0.2,0H37.3c-0.4,0-0.7,0.2-0.9,0.5  c-0.2,0.5-5.9,11.9-1.3,19.4C37.6,45.3,42.3,47.3,49.1,47.5z M63.4,40.3c-2.1,3.4-6.5,5.2-13,5.2c0,0-0.1,0-0.1,0c0,0-0.1,0-0.1,0  c0,0-0.1,0-0.1,0c0,0-0.1,0-0.1,0c-6.5,0-10.9-1.7-13-5.2c-1.9-3.1-1.7-7.2-1-10.6l0,0.1l0.7-0.3c1.9-0.8,3.7-1.5,7-1.5  c3.3,0,5.1,0.7,7,1.5c2,0.8,4,1.6,7.7,1.6c2.8,0,4.6-0.5,6.1-1C65.1,33.5,65.2,37.3,63.4,40.3z M38,23.4h11.9c0.1,0,0.1,0,0.2,0  c0.1,0,0.1,0,0.2,0h11.9c0.4,0.9,1.1,2.6,1.7,4.8c-1.3,0.5-3,0.9-5.6,0.9c-3.3,0-5.1-0.7-7-1.5c-2-0.8-4-1.6-7.7-1.6  c-3.4,0-5.4,0.7-7.2,1.4C37,25.6,37.6,24.1,38,23.4z"
     id="path4" /><path
     d="M41.5,31.5c-1.9,1.1-2.3,3.8-1,5.9c0.9,1.5,2.4,2.4,3.9,2.4c0.6,0,1.3-0.2,1.8-0.5c1.9-1.1,2.3-3.8,1-5.9  C46,31.2,43.4,30.4,41.5,31.5z M45.6,34.4c0.4,0.6,0.5,1.3,0.4,1.9c-0.1,0-0.1-0.1-0.2-0.2c-0.5-0.5-0.6-0.8-0.8-1.1  c-0.2-0.4-0.5-0.9-1.2-1.6c-0.2-0.2-0.3-0.3-0.5-0.4c0,0,0,0,0.1,0C44.2,33,45,33.5,45.6,34.4z M42.2,36.4c-0.4-0.7-0.5-1.4-0.4-2  c0.2,0.1,0.4,0.3,0.6,0.5c0.5,0.5,0.6,0.8,0.8,1.1c0.2,0.4,0.5,0.9,1.2,1.6c0.1,0.1,0.1,0.1,0.2,0.2C43.8,37.9,42.8,37.4,42.2,36.4z  "
     id="path6" /><path
     d="M53.9,33.8c-1.1,0.4-2,1.2-2.6,2.1c-0.6,1-0.7,2.1-0.3,3.2c0.6,1.5,2.1,2.5,3.9,2.5c0.6,0,1.2-0.1,1.8-0.3  c1.1-0.4,2-1.2,2.6-2.1c0.6-1,0.7-2.1,0.3-3.2C58.8,33.9,56.2,32.9,53.9,33.8z M54.5,35.6c0.4-0.1,0.7-0.2,1.1-0.2  c0.3,0,0.7,0.1,1,0.2c-0.1,0.1-0.3,0.3-0.6,0.5c-0.5,0.4-0.9,0.5-1.3,0.6c-0.5,0.1-1,0.3-1.8,0.9c-0.1,0.1-0.1,0.1-0.2,0.2  c0-0.3,0.1-0.6,0.3-0.9C53.3,36.3,53.9,35.9,54.5,35.6z M55.9,39.3c-0.7,0.3-1.4,0.2-2,0.1c0.1,0,0.1-0.1,0.2-0.1  c0.5-0.4,0.9-0.5,1.3-0.6c0.5-0.1,1-0.3,1.8-0.9c0.2-0.1,0.4-0.3,0.5-0.4c0,0.2-0.1,0.5-0.3,0.7C57.1,38.6,56.6,39.1,55.9,39.3z"
     id="path8" /></svg>