<?xml version="1.0" encoding="UTF-8" standalone="no"?>
<svg
   xmlns:dc="http://purl.org/dc/elements/1.1/"
   xmlns:cc="http://creativecommons.org/ns#"
   xmlns:rdf="http://www.w3.org/1999/02/22-rdf-syntax-ns#"
   xmlns:svg="http://www.w3.org/2000/svg"
   xmlns="http://www.w3.org/2000/svg"
   xmlns:sodipodi="http://sodipodi.sourceforge.net/DTD/sodipodi-0.dtd"
   xmlns:inkscape="http://www.inkscape.org/namespaces/inkscape"
   version="1.1"
   x="0px"
   y="0px"
   viewBox="0 0 100 125"
   style="enable-background:new 0 0 100 100;"
   xml:space="preserve"
   id="svg24"
   sodipodi:docname="noun_drinks_1264540.svg"
   inkscape:version="0.92.3 (2405546, 2018-03-11)"><metadata
     id="metadata30"><rdf:RDF><cc:Work
         rdf:about=""><dc:format>image/svg+xml</dc:format><dc:type
           rdf:resource="http://purl.org/dc/dcmitype/StillImage" /></cc:Work></rdf:RDF></metadata><defs
     id="defs28" /><sodipodi:namedview
     pagecolor="#ffffff"
     bordercolor="#666666"
     borderopacity="1"
     objecttolerance="10"
     gridtolerance="10"
     guidetolerance="10"
     inkscape:pageopacity="0"
     inkscape:pageshadow="2"
     inkscape:window-width="668"
     inkscape:window-height="480"
     id="namedview26"
     showgrid="false"
     inkscape:zoom="1.888"
     inkscape:cx="50"
     inkscape:cy="62.5"
     inkscape:window-x="0"
     inkscape:window-y="28"
     inkscape:window-maximized="0"
     inkscape:current-layer="svg24" /><path
     d="M53.433,54.723c0-1.896-1.542-3.438-3.438-3.438s-3.438,1.542-3.438,3.438s1.542,3.438,3.438,3.438  S53.433,56.618,53.433,54.723z M48.558,54.723c0-0.793,0.645-1.438,1.438-1.438s1.438,0.645,1.438,1.438s-0.645,1.438-1.438,1.438  S48.558,55.516,48.558,54.723z"
     id="path2" /><path
     d="M52.433,61.85c-2.233,0-4.05,1.816-4.05,4.05s1.816,4.051,4.05,4.051s4.051-1.817,4.051-4.051S54.666,61.85,52.433,61.85z   M52.433,67.95c-1.13,0-2.05-0.92-2.05-2.051c0-1.13,0.92-2.05,2.05-2.05c1.131,0,2.051,0.92,2.051,2.05  C54.483,67.03,53.563,67.95,52.433,67.95z"
     id="path4" /><path
     d="M52.433,38.326c-2.442,0-4.429,1.987-4.429,4.43s1.986,4.429,4.429,4.429s4.43-1.986,4.43-4.429  S54.875,38.326,52.433,38.326z M52.433,45.185c-1.339,0-2.429-1.09-2.429-2.429c0-1.34,1.09-2.43,2.429-2.43  c1.34,0,2.43,1.09,2.43,2.43C54.862,44.095,53.772,45.185,52.433,45.185z"
     id="path6" /><path
     d="M40.604,21.075c0-0.553-0.447-1-1-1h-2.44c-0.553,0-1,0.447-1,1s0.447,1,1,1h2.44  C40.157,22.075,40.604,21.628,40.604,21.075z"
     id="path8" /><path
     d="M43.614,18.065c0.553,0,1-0.447,1-1v-2.44c0-0.553-0.447-1-1-1s-1,0.447-1,1v2.44  C42.614,17.618,43.062,18.065,43.614,18.065z"
     id="path10" /><path
     d="M40.071,23.204l-1.725,1.726c-0.391,0.391-0.391,1.023,0,1.414c0.195,0.195,0.451,0.293,0.707,0.293  s0.512-0.098,0.707-0.293l1.725-1.726c0.391-0.391,0.391-1.024,0-1.414C41.095,22.813,40.462,22.813,40.071,23.204z"
     id="path12" /><path
     d="M46.45,19.239c0.256,0,0.512-0.098,0.707-0.293l1.726-1.725c0.391-0.39,0.391-1.023,0-1.414s-1.023-0.391-1.414,0  l-1.726,1.725c-0.391,0.39-0.391,1.023,0,1.414C45.938,19.142,46.194,19.239,46.45,19.239z"
     id="path14" /><path
     d="M39.761,15.808c-0.391-0.391-1.023-0.391-1.414,0s-0.391,1.023,0,1.414l1.725,1.725c0.195,0.195,0.451,0.293,0.707,0.293  s0.512-0.098,0.707-0.293c0.391-0.391,0.391-1.023,0-1.414L39.761,15.808z"
     id="path16" /><path
     d="M61.985,10.001c-0.539,0.021-1.013,0.42-1.028,0.972l-0.267,9.402h-6.317c-0.402-5.786-5.226-10.374-11.112-10.374  c-6.149,0-11.152,5.003-11.152,11.152c0,5.232,3.891,10.663,10.402,10.695c0.002,0,0.003,0,0.005,0c0.03,0,0.055-0.014,0.084-0.017  V89c0,0.553,0.447,1,1,1h23.25c0.553,0,1-0.447,1-1V21.375c0-0.553-0.447-1-1-1h-4.158l0.265-9.346  C62.973,10.478,62.537,10.017,61.985,10.001z M60.633,22.375l-0.239,8.417c-0.026,0-0.047-0.002-0.073-0.002  c-2.952,0-4.562,0.667-6.118,1.312c-1.44,0.597-2.8,1.16-5.355,1.16c-1.994,0-3.226-0.341-4.248-0.721V22.375H60.633z   M42.521,29.849c-5.266-0.025-8.412-4.441-8.412-8.695c0-5.047,4.105-9.152,9.152-9.152c4.783,0,8.715,3.691,9.112,8.374H43.6  c-0.553,0-1,0.447-1,1v8.49C42.572,29.863,42.549,29.849,42.521,29.849z M44.6,88V34.655c1.048,0.33,2.376,0.607,4.248,0.607  c2.953,0,4.563-0.667,6.121-1.312c1.438-0.596,2.798-1.159,5.353-1.159c0.006,0,0.011,0,0.016,0l-1.213,42.722  c-0.016,0.552,0.42,1.013,0.972,1.028c0.01,0,0.02,0,0.029,0c0.539,0,0.983-0.43,0.999-0.972l1.21-42.635  c1.364,0.204,2.339,0.601,3.344,1.018l0.17,0.07V88H44.6z M65.85,22.375v9.484c-0.972-0.391-2.028-0.756-3.457-0.942l0.242-8.543  H65.85z"
     id="path18" /></svg>