<?xml version="1.0" encoding="UTF-8" standalone="no"?>
<svg
   xmlns:dc="http://purl.org/dc/elements/1.1/"
   xmlns:cc="http://creativecommons.org/ns#"
   xmlns:rdf="http://www.w3.org/1999/02/22-rdf-syntax-ns#"
   xmlns:svg="http://www.w3.org/2000/svg"
   xmlns="http://www.w3.org/2000/svg"
   xmlns:sodipodi="http://sodipodi.sourceforge.net/DTD/sodipodi-0.dtd"
   xmlns:inkscape="http://www.inkscape.org/namespaces/inkscape"
   version="1.1"
   x="0px"
   y="0px"
   viewBox="0 0 100 125"
   style="enable-background:new 0 0 100 100;"
   xml:space="preserve"
   id="svg20"
   sodipodi:docname="noun_Drink_872916.svg"
   inkscape:version="0.92.3 (2405546, 2018-03-11)"><metadata
     id="metadata26"><rdf:RDF><cc:Work
         rdf:about=""><dc:format>image/svg+xml</dc:format><dc:type
           rdf:resource="http://purl.org/dc/dcmitype/StillImage" /></cc:Work></rdf:RDF></metadata><defs
     id="defs24" /><sodipodi:namedview
     pagecolor="#ffffff"
     bordercolor="#666666"
     borderopacity="1"
     objecttolerance="10"
     gridtolerance="10"
     guidetolerance="10"
     inkscape:pageopacity="0"
     inkscape:pageshadow="2"
     inkscape:window-width="668"
     inkscape:window-height="480"
     id="namedview22"
     showgrid="false"
     inkscape:zoom="1.888"
     inkscape:cx="50"
     inkscape:cy="62.5"
     inkscape:window-x="0"
     inkscape:window-y="28"
     inkscape:window-maximized="0"
     inkscape:current-layer="svg20" /><style
     type="text/css"
     id="style2">
	.st0{fill:none;stroke:#000000;stroke-width:2;stroke-linecap:round;stroke-linejoin:round;stroke-miterlimit:10;}
	.st1{fill:none;stroke:#000000;stroke-width:2;stroke-miterlimit:10;}
	.st2{fill:none;stroke:#000000;stroke-width:1.8;stroke-linecap:round;stroke-linejoin:round;stroke-miterlimit:10;}
	.st3{fill:none;stroke:#000000;stroke-width:1.6;stroke-linecap:round;stroke-linejoin:round;stroke-miterlimit:10;}
</style><path
     d="M41.3,75.4h25.4c2,0,4.4-0.6,4.5-2.2L74.7,31c0-0.3-0.1-0.6-0.3-0.9c-0.4-0.5-1.2-0.5-1.6-0.5H35.2c-0.4,0-1.1,0.1-1.6,0.5  c-0.2,0.2-0.3,0.6-0.3,0.9l3.4,42.2C36.9,74.8,39.3,75.4,41.3,75.4z M69.3,72.8c-0.2,0.2-1.1,0.5-2.6,0.5H41.3  c-1.5,0-2.3-0.3-2.6-0.5l-2.1-25.9c1.7,0.8,3.7,1.4,6.6,1.4c4.9,0,7.5-1.8,10.1-3.6c2.4-1.7,4.7-3.2,8.9-3.2c4.3,0,6.5,1.6,8.9,3.2  c0.1,0.1,0.2,0.2,0.4,0.2L69.3,72.8z M72.7,31.5l-0.9,11.2c-2.4-1.6-5-3.2-9.5-3.2c-4.9,0-7.5,1.8-10.1,3.6  c-2.4,1.7-4.7,3.2-8.9,3.2c-3.1,0-5.1-0.8-6.8-1.8l-1.1-13H72.7z"
     id="path4" /><path
     d="M52.1,58.9c-0.7-0.7-1.9-0.7-2.7,0l-2.8,2.8C46.2,62.1,46,62.5,46,63s0.2,1,0.6,1.3l2.8,2.8c0.4,0.4,0.9,0.6,1.3,0.6  c0.5,0,1-0.2,1.3-0.6l2.8-2.8c0.7-0.7,0.7-1.9,0-2.7L52.1,58.9z M50.8,65.7L48.1,63l2.7-2.7l2.7,2.7L50.8,65.7z"
     id="path6" /><path
     d="M62.5,55c-0.7-0.7-1.9-0.7-2.7,0L57,57.8c-0.4,0.4-0.6,0.8-0.6,1.3s0.2,1,0.6,1.3l2.8,2.8c0.4,0.4,0.9,0.6,1.3,0.6  c0.5,0,1-0.2,1.3-0.6l2.8-2.8c0.7-0.7,0.7-1.9,0-2.7L62.5,55z M61.2,61.9l-2.7-2.7l2.7-2.7l2.7,2.7L61.2,61.9z"
     id="path8" /><path
     d="M65.9,45.1c-0.7-0.7-1.9-0.7-2.7,0l-2.8,2.8c-0.7,0.7-0.7,1.9,0,2.7l2.8,2.8c0.4,0.4,0.9,0.6,1.3,0.6c0.5,0,1-0.2,1.3-0.6  l2.8-2.8c0.4-0.4,0.6-0.8,0.6-1.3s-0.2-1-0.6-1.3L65.9,45.1z M64.5,51.9l-2.7-2.7l2.7-2.7l2.7,2.7L64.5,51.9z"
     id="path10" /><path
     d="M47,57.7c0.3-0.4,0.4-0.9,0.4-1.4l-0.6-4c-0.1-0.5-0.3-0.9-0.7-1.2c-0.4-0.3-0.9-0.4-1.4-0.4l-4,0.6c-1,0.1-1.7,1.1-1.6,2.1  l0.6,4c0.1,0.5,0.3,0.9,0.7,1.2c0.3,0.2,0.7,0.4,1.1,0.4c0.1,0,0.2,0,0.3,0l4-0.6C46.2,58.4,46.7,58.1,47,57.7z M41.6,57L41,53.3  l3.8-0.5l0.5,3.8L41.6,57z"
     id="path12" /><path
     d="M50.8,54.3c0.3,0.7,1,1.2,1.7,1.2c0.2,0,0.5,0,0.7-0.1l3.7-1.5c0.5-0.2,0.8-0.6,1-1c0.2-0.5,0.2-1,0-1.4l-1.5-3.7  c-0.4-1-1.5-1.4-2.5-1l-3.7,1.5c-1,0.4-1.4,1.5-1,2.5L50.8,54.3z M54.6,48.5l1.5,3.5l-3.5,1.5l-1.5-3.5L54.6,48.5z"
     id="path14" /></svg>